<svg width="512" height="376" viewBox="0 0 512 376" version="1.1" xmlns="http://www.w3.org/2000/svg" xmlns:xlink="http://www.w3.org/1999/xlink">
<title>logo</title>
<desc>Created using Figma</desc>
<g id="Canvas" transform="matrix(1.52836 0 0 1.52836 1667.44 -5048.17)">
<g id="logo">
<g id="guarda">
<use xlink:href="#path0_fill" transform="translate(-1091 3303)" fill="url(#paint0_linear)"/>
</g>
<g id="Guarda">
<use xlink:href="#path1_fill" transform="translate(-944.814 3439.7)" fill="#7093EF"/>
<use xlink:href="#path2_fill" transform="translate(-944.814 3439.7)" fill="#7093EF"/>
<use xlink:href="#path3_fill" transform="translate(-944.814 3439.7)" fill="#7093EF"/>
<use xlink:href="#path4_fill" transform="translate(-944.814 3439.7)" fill="#7093EF"/>
<use xlink:href="#path5_fill" transform="translate(-944.814 3439.7)" fill="#7093EF"/>
<use xlink:href="#path6_fill" transform="translate(-944.814 3439.7)" fill="#7093EF"/>
</g>
<g id="Wallet">
<use xlink:href="#path7_fill" transform="translate(-947.349 3501.89)" fill="#7093EF"/>
<use xlink:href="#path8_fill" transform="translate(-947.349 3501.89)" fill="#7093EF"/>
<use xlink:href="#path9_fill" transform="translate(-947.349 3501.89)" fill="#7093EF"/>
<use xlink:href="#path10_fill" transform="translate(-947.349 3501.89)" fill="#7093EF"/>
<use xlink:href="#path11_fill" transform="translate(-947.349 3501.89)" fill="#7093EF"/>
<use xlink:href="#path12_fill" transform="translate(-947.349 3501.89)" fill="#7093EF"/>
</g>
</g>
</g>
<defs>
<linearGradient id="paint0_linear" x1="0" y1="0" x2="1" y2="0" gradientUnits="userSpaceOnUse" gradientTransform="matrix(-154.27 117.229 -191.577 -111.581 240.583 73.0524)">
<stop offset="0" stop-color="#B06AB3"/>
<stop offset="1" stop-color="#6699F8"/>
</linearGradient>
<path id="path0_fill" fill-rule="evenodd" d="M 143.732 17.2994C 144.198 17.4427 144.556 17.837 144.592 18.3387L 144.596 18.4022C 144.817 21.7093 152.544 137.423 72.8111 164.581C 72.7036 164.617 72.5603 164.653 72.4529 164.653C 72.3454 164.653 72.2022 164.617 72.0946 164.581C -8.38974 137.167 0.206691 19.5211 0.314113 18.3387C 0.350002 17.837 0.708156 17.4427 1.17385 17.3353L 72.1663 0.0269165C 72.3454 -0.00897217 72.5246 -0.00897217 72.7036 0.0269165L 143.732 17.2994ZM 72.4529 149.961C 72.5246 149.961 72.632 149.961 72.7394 149.925C 138.896 127.42 131.804 30.7017 131.697 29.7342C 131.661 29.3399 131.375 29.0174 130.98 28.91L 72.632 14.6834C 72.4887 14.6475 72.3454 14.6475 72.2022 14.6834L 13.8535 28.91C 13.4596 28.9815 13.173 29.3399 13.1372 29.7342C 13.0656 30.7017 6.0093 127.42 72.1305 149.925C 72.2379 149.961 72.3454 149.961 72.4529 149.961ZM 110.02 46.1363C 110.274 46.2003 110.462 46.4158 110.481 46.6758C 110.533 47.3028 115.074 109.362 72.6427 123.815C 72.5788 123.838 72.5121 123.849 72.4483 123.849C 72.3815 123.849 72.3135 123.838 72.2495 123.815C 29.8197 109.362 34.3609 47.3028 34.4109 46.6758C 34.4317 46.4158 34.6178 46.2003 34.8706 46.1363L 72.3024 37.0159C 72.3969 36.9896 72.4968 36.9896 72.5899 37.0159L 110.02 46.1363Z"/>
<path id="path1_fill" d="M 32.8987 41.266C 31.6109 43.1027 29.5887 44.5358 26.8321 45.5651C 24.0955 46.5945 21.027 47.1092 17.6265 47.1092C 14.1857 47.1092 11.1272 46.2817 8.45104 44.6266C 5.77488 42.9715 3.70236 40.6302 2.23349 37.6026C 0.764618 34.575 0.0201215 31.1034 0 27.1877L 0 21.617C 0 15.5012 1.5393 10.6773 4.61789 7.1451C 7.69648 3.59273 11.8315 1.81655 17.0228 1.81655C 21.5502 1.81655 25.1922 2.97712 27.9488 5.29827C 30.7055 7.59924 32.3454 10.7782 32.8685 14.8352L 29.1561 14.8352C 28.6128 11.6057 27.2949 9.16349 25.2022 7.50841C 23.1297 5.83315 20.4133 4.99551 17.053 4.99551C 12.9482 4.99551 9.69858 6.45885 7.30412 9.38551C 4.90965 12.3122 3.71242 16.4398 3.71242 21.7683L 3.71242 26.9758C 3.71242 30.3263 4.27583 33.2933 5.40263 35.8769C 6.54956 38.4402 8.1794 40.4283 10.2922 41.8412C 12.425 43.2541 14.8698 43.9605 17.6265 43.9605C 20.8258 43.9605 23.5724 43.4559 25.8662 42.4467C 27.3552 41.7807 28.4619 41.0036 29.1863 40.1155L 29.1863 28.7318L 17.385 28.7318L 17.385 25.5831L 32.8987 25.5831L 32.8987 41.266Z"/>
<path id="path2_fill" d="M 63.5941 42.3559C 61.421 45.5248 57.95 47.1092 53.1812 47.1092C 49.7002 47.1092 47.0542 46.1 45.2433 44.0816C 43.4323 42.0431 42.5067 39.0357 42.4665 35.0594L 42.4665 13.7452L 46.0582 13.7452L 46.0582 34.6053C 46.0582 40.8421 48.5734 43.9605 53.6038 43.9605C 58.8354 43.9605 62.1453 41.7908 63.5337 37.4512L 63.5337 13.7452L 67.1556 13.7452L 67.1556 46.5037L 63.6545 46.5037L 63.5941 42.3559Z"/>
<path id="path3_fill" d="M 97.187 46.5037C 96.8248 45.4743 96.5934 43.9504 96.4928 41.932C 95.2251 43.5871 93.6054 44.8688 91.6334 45.7771C 89.6817 46.6652 87.6091 47.1092 85.4159 47.1092C 82.2769 47.1092 79.7316 46.2312 77.7798 44.4752C 75.8481 42.7192 74.8823 40.499 74.8823 37.8145C 74.8823 34.6255 76.2002 32.1025 78.8362 30.2456C 81.4922 28.3886 85.1845 27.4602 89.9131 27.4602L 96.4626 27.4602L 96.4626 23.7363C 96.4626 21.3949 95.7382 19.5582 94.2895 18.2261C 92.8609 16.8737 90.7682 16.1976 88.0116 16.1976C 85.4964 16.1976 83.4138 16.8435 81.7638 18.1352C 80.1139 19.427 79.2889 20.9812 79.2889 22.7977L 75.667 22.7674C 75.667 20.1637 76.8743 17.9132 79.2889 16.0159C 81.7035 14.0985 84.6714 13.1397 88.1927 13.1397C 91.8347 13.1397 94.702 14.0581 96.7946 15.8948C 98.9074 17.7114 99.9939 20.2545 100.054 23.5243L 100.054 39.0256C 100.054 42.1944 100.386 44.566 101.05 46.1404L 101.05 46.5037L 97.187 46.5037ZM 85.8384 43.9C 88.253 43.9 90.406 43.3146 92.2975 42.144C 94.209 40.9733 95.5974 39.4091 96.4626 37.4512L 96.4626 30.2456L 90.0036 30.2456C 86.4018 30.2859 83.5848 30.952 81.5526 32.2438C 79.5203 33.5154 78.5042 35.2714 78.5042 37.5118C 78.5042 39.3485 79.1782 40.8724 80.5264 42.0834C 81.8946 43.2945 83.6653 43.9 85.8384 43.9Z"/>
<path id="path4_fill" d="M 124.804 16.8334C 124.039 16.6921 123.224 16.6214 122.359 16.6214C 120.105 16.6214 118.194 17.2572 116.624 18.5288C 115.075 19.7802 113.968 21.6069 113.304 24.0087L 113.304 46.5037L 109.713 46.5037L 109.713 13.7452L 113.244 13.7452L 113.304 18.9527C 115.216 15.0774 118.284 13.1397 122.51 13.1397C 123.516 13.1397 124.311 13.2709 124.894 13.5333L 124.804 16.8334Z"/>
<path id="path5_fill" d="M 128.54 29.8217C 128.54 24.7354 129.666 20.6885 131.92 17.6811C 134.194 14.6535 137.272 13.1397 141.156 13.1397C 145.562 13.1397 148.923 14.8856 151.237 18.3774L 151.237 0L 154.828 0L 154.828 46.5037L 151.448 46.5037L 151.297 42.144C 148.983 45.4541 145.582 47.1092 141.095 47.1092C 137.333 47.1092 134.294 45.5954 131.98 42.5678C 129.686 39.5201 128.54 35.4126 128.54 30.2456L 128.54 29.8217ZM 132.192 30.4575C 132.192 34.6356 133.027 37.9356 134.697 40.3577C 136.367 42.7596 138.721 43.9605 141.759 43.9605C 146.206 43.9605 149.365 41.9926 151.237 38.0567L 151.237 22.6766C 149.365 18.4178 146.226 16.2884 141.82 16.2884C 138.781 16.2884 136.417 17.4893 134.727 19.8912C 133.037 22.2729 132.192 25.795 132.192 30.4575Z"/>
<path id="path6_fill" d="M 184.95 46.5037C 184.588 45.4743 184.357 43.9504 184.256 41.932C 182.988 43.5871 181.369 44.8688 179.397 45.7771C 177.445 46.6652 175.372 47.1092 173.179 47.1092C 170.04 47.1092 167.495 46.2312 165.543 44.4752C 163.611 42.7192 162.646 40.499 162.646 37.8145C 162.646 34.6255 163.963 32.1025 166.599 30.2456C 169.255 28.3886 172.948 27.4602 177.676 27.4602L 184.226 27.4602L 184.226 23.7363C 184.226 21.3949 183.501 19.5582 182.053 18.2261C 180.624 16.8737 178.531 16.1976 175.775 16.1976C 173.26 16.1976 171.177 16.8435 169.527 18.1352C 167.877 19.427 167.052 20.9812 167.052 22.7977L 163.43 22.7674C 163.43 20.1637 164.638 17.9132 167.052 16.0159C 169.467 14.0985 172.435 13.1397 175.956 13.1397C 179.598 13.1397 182.465 14.0581 184.558 15.8948C 186.671 17.7114 187.757 20.2545 187.818 23.5243L 187.818 39.0256C 187.818 42.1944 188.15 44.566 188.814 46.1404L 188.814 46.5037L 184.95 46.5037ZM 173.602 43.9C 176.016 43.9 178.169 43.3146 180.061 42.144C 181.972 40.9733 183.361 39.4091 184.226 37.4512L 184.226 30.2456L 177.767 30.2456C 174.165 30.2859 171.348 30.952 169.316 32.2438C 167.284 33.5154 166.267 35.2714 166.267 37.5118C 166.267 39.3485 166.941 40.8724 168.29 42.0834C 169.658 43.2945 171.429 43.9 173.602 43.9Z"/>
<path id="path7_fill" d="M 11.8315 34.6053L 13.1897 41.4476L 14.8497 34.908L 24.3873 2.42207L 27.7375 2.42207L 37.1544 34.908L 38.7842 41.5082L 40.233 34.6053L 48.1709 2.42207L 51.9739 2.42207L 40.7159 46.5037L 37.1544 46.5037L 27.1942 12.0195L 26.0775 7.65979L 24.9909 12.0195L 14.7893 46.5037L 11.2278 46.5037L 0 2.42207L 3.80297 2.42207L 11.8315 34.6053Z"/>
<path id="path8_fill" d="M 77.9322 46.5037C 77.57 45.4743 77.3386 43.9504 77.238 41.932C 75.9704 43.5871 74.3506 44.8688 72.3787 45.7771C 70.4269 46.6652 68.3544 47.1092 66.1611 47.1092C 63.0222 47.1092 60.4768 46.2312 58.525 44.4752C 56.5933 42.7192 55.6275 40.499 55.6275 37.8145C 55.6275 34.6255 56.9455 32.1025 59.5814 30.2456C 62.2374 28.3886 65.9297 27.4602 70.6583 27.4602L 77.2078 27.4602L 77.2078 23.7363C 77.2078 21.3949 76.4835 19.5582 75.0347 18.2261C 73.6061 16.8737 71.5135 16.1976 68.7568 16.1976C 66.2416 16.1976 64.159 16.8435 62.5091 18.1352C 60.8591 19.427 60.0341 20.9812 60.0341 22.7977L 56.4122 22.7674C 56.4122 20.1637 57.6195 17.9132 60.0341 16.0159C 62.4487 14.0985 65.4166 13.1397 68.9379 13.1397C 72.5799 13.1397 75.4472 14.0581 77.5398 15.8948C 79.6526 17.7114 80.7392 20.2545 80.7995 23.5243L 80.7995 39.0256C 80.7995 42.1944 81.1315 44.566 81.7956 46.1404L 81.7956 46.5037L 77.9322 46.5037ZM 66.5837 43.9C 68.9983 43.9 71.1513 43.3146 73.0427 42.144C 74.9542 40.9733 76.3426 39.4091 77.2078 37.4512L 77.2078 30.2456L 70.7488 30.2456C 67.1471 30.2859 64.3301 30.952 62.2978 32.2438C 60.2655 33.5154 59.2494 35.2714 59.2494 37.5118C 59.2494 39.3485 59.9235 40.8724 61.2716 42.0834C 62.6399 43.2945 64.4106 43.9 66.5837 43.9Z"/>
<path id="path9_fill" d="M 94.5023 46.5037L 90.8804 46.5037L 90.8804 0L 94.5023 0L 94.5023 46.5037Z"/>
<path id="path10_fill" d="M 108.386 46.5037L 104.764 46.5037L 104.764 0L 108.386 0L 108.386 46.5037Z"/>
<path id="path11_fill" d="M 130.872 47.1092C 128.095 47.1092 125.58 46.423 123.326 45.0505C 121.093 43.678 119.352 41.7706 118.105 39.3283C 116.857 36.8659 116.234 34.1108 116.234 31.063L 116.234 29.7612C 116.234 26.6125 116.837 23.7766 118.044 21.2536C 119.272 18.7307 120.972 16.7526 123.145 15.3196C 125.318 13.8663 127.673 13.1397 130.208 13.1397C 134.172 13.1397 137.311 14.5021 139.625 17.227C 141.959 19.9316 143.126 23.6353 143.126 28.3382L 143.126 30.3667L 119.825 30.3667L 119.825 31.063C 119.825 34.7769 120.882 37.8751 122.994 40.3577C 125.127 42.8201 127.803 44.0514 131.023 44.0514C 132.955 44.0514 134.655 43.6981 136.124 42.9917C 137.613 42.2853 138.961 41.155 140.168 39.6008L 142.432 41.3265C 139.776 45.1817 135.922 47.1092 130.872 47.1092ZM 130.208 16.2279C 127.492 16.2279 125.198 17.227 123.326 19.2252C 121.475 21.2234 120.348 23.9078 119.946 27.2785L 139.534 27.2785L 139.534 26.8849C 139.434 23.7363 138.538 21.1729 136.848 19.1949C 135.158 17.2169 132.944 16.2279 130.208 16.2279Z"/>
<path id="path12_fill" d="M 155.772 5.35882L 155.772 13.7452L 162.533 13.7452L 162.533 16.7123L 155.772 16.7123L 155.772 38.5411C 155.772 40.3577 156.094 41.71 156.738 42.5981C 157.402 43.4862 158.499 43.9303 160.028 43.9303C 160.632 43.9303 161.608 43.8293 162.956 43.6275L 163.107 46.5945C 162.161 46.9376 160.873 47.1092 159.243 47.1092C 156.768 47.1092 154.967 46.3927 153.841 44.9596C 152.714 43.5064 152.15 41.377 152.15 38.5714L 152.15 16.7123L 146.144 16.7123L 146.144 13.7452L 152.15 13.7452L 152.15 5.35882L 155.772 5.35882Z"/>
</defs>
</svg>
