<svg width="512" height="774" viewBox="0 0 512 774" version="1.1" xmlns="http://www.w3.org/2000/svg" xmlns:xlink="http://www.w3.org/1999/xlink">
<title>guarda logo vertikal</title>
<desc>Created using Figma</desc>
<g id="Canvas" transform="matrix(1.34031 0 0 1.34031 -466.429 -4393.55)">
<g id="guarda logo vertikal">
<g id="guarda">
<use xlink:href="#path0_fill" transform="translate(348 3278)" fill="#333333"/>
</g>
<g id="Guarda Wallet">
<use xlink:href="#path1_fill" transform="translate(449.117 3750.75)" fill="#333333"/>
<use xlink:href="#path2_fill" transform="translate(449.117 3750.75)" fill="#333333"/>
<use xlink:href="#path3_fill" transform="translate(449.117 3750.75)" fill="#333333"/>
<use xlink:href="#path4_fill" transform="translate(449.117 3750.75)" fill="#333333"/>
<use xlink:href="#path5_fill" transform="translate(449.117 3750.75)" fill="#333333"/>
<use xlink:href="#path6_fill" transform="translate(449.117 3750.75)" fill="#333333"/>
<use xlink:href="#path7_fill" transform="translate(449.117 3750.75)" fill="#333333"/>
<use xlink:href="#path8_fill" transform="translate(449.117 3750.75)" fill="#333333"/>
<use xlink:href="#path9_fill" transform="translate(449.117 3750.75)" fill="#333333"/>
<use xlink:href="#path10_fill" transform="translate(449.117 3750.75)" fill="#333333"/>
<use xlink:href="#path11_fill" transform="translate(449.117 3750.75)" fill="#333333"/>
<use xlink:href="#path12_fill" transform="translate(449.117 3750.75)" fill="#333333"/>
</g>
</g>
</g>
<defs>
<path id="path0_fill" fill-rule="evenodd" d="M 378.855 45.5984C 380.083 45.9764 381.027 47.0152 381.121 48.3377L 381.132 48.5052C 381.715 57.2339 402.08 362.228 191.919 433.811C 191.636 433.905 191.258 434 190.975 434C 190.691 434 190.314 433.905 190.031 433.811C -22.1142 361.552 0.544766 51.4547 0.827999 48.3377C 0.922421 47.0152 1.86654 45.9764 3.0939 45.6929L 190.219 0.0708618C 190.691 -0.0236206 191.164 -0.0236206 191.636 0.0708618L 378.855 45.5984ZM 190.975 395.273C 191.164 395.273 191.447 395.273 191.73 395.179C 366.11 335.86 347.416 80.9249 347.133 78.3746C 347.038 77.3355 346.283 76.4854 345.245 76.202L 191.447 38.7032C 191.069 38.6087 190.691 38.6087 190.314 38.7032L 36.5159 76.202C 35.4774 76.3909 34.7221 77.3355 34.6277 78.3746C 34.4388 80.9249 15.8396 335.86 190.125 395.179C 190.408 395.273 190.691 395.273 190.975 395.273ZM 289.996 121.608C 290.666 121.777 291.161 122.345 291.212 123.03C 291.348 124.683 303.317 288.261 191.475 326.359C 191.307 326.418 191.131 326.447 190.962 326.447C 190.787 326.447 190.607 326.418 190.439 326.359C 78.6003 288.261 90.5699 124.683 90.7017 123.03C 90.7566 122.345 91.2473 121.777 91.9137 121.608L 190.578 97.5684C 190.827 97.4988 191.091 97.4988 191.336 97.5684L 289.996 121.608Z"/>
<path id="path1_fill" d="M 31.4014 39.2661C 30.1722 41.0138 28.242 42.3774 25.6108 43.3569C 22.9989 44.3364 20.07 44.8262 16.8242 44.8262C 13.54 44.8262 10.6208 44.0387 8.06641 42.4639C 5.51204 40.889 3.53385 38.6611 2.13184 35.7803C 0.729818 32.8994 0.0192059 29.596 0 25.8701L 0 20.5693C 0 14.75 1.46924 10.1598 4.40771 6.79883C 7.34619 3.41862 11.293 1.72852 16.248 1.72852C 20.5693 1.72852 24.0456 2.83285 26.6768 5.0415C 29.3079 7.23096 30.8732 10.2559 31.3726 14.1162L 27.8291 14.1162C 27.3105 11.0433 26.0526 8.7194 24.0552 7.14453C 22.077 5.55045 19.4842 4.75342 16.2769 4.75342C 12.3589 4.75342 9.25716 6.14583 6.97168 8.93066C 4.6862 11.7155 3.54346 15.6431 3.54346 20.7134L 3.54346 25.6685C 3.54346 28.8566 4.08122 31.6798 5.15674 34.1382C 6.25146 36.5773 7.80713 38.4691 9.82373 39.8135C 11.8595 41.1579 14.193 41.8301 16.8242 41.8301C 19.8779 41.8301 22.4995 41.3499 24.689 40.3896C 26.1102 39.7559 27.1665 39.0164 27.8579 38.1714L 27.8579 27.3394L 16.5938 27.3394L 16.5938 24.3433L 31.4014 24.3433L 31.4014 39.2661Z"/>
<path id="path2_fill" d="M 60.6997 40.3032C 58.6255 43.3185 55.3125 44.8262 50.7607 44.8262C 47.4382 44.8262 44.9126 43.8659 43.1841 41.9453C 41.4556 40.0055 40.5721 37.1439 40.5337 33.3604L 40.5337 13.0791L 43.9619 13.0791L 43.9619 32.9282C 43.9619 38.8628 46.3626 41.8301 51.1641 41.8301C 56.1576 41.8301 59.3169 39.7655 60.6421 35.6362L 60.6421 13.0791L 64.0991 13.0791L 64.0991 44.25L 60.7573 44.25L 60.6997 40.3032Z"/>
<path id="path3_fill" d="M 92.7637 44.25C 92.418 43.2705 92.1971 41.8205 92.1011 39.8999C 90.8911 41.4748 89.3451 42.6943 87.4629 43.5586C 85.5999 44.4036 83.6217 44.8262 81.5283 44.8262C 78.5322 44.8262 76.1027 43.9907 74.2397 42.3198C 72.396 40.6489 71.4741 38.5363 71.4741 35.9819C 71.4741 32.9474 72.7321 30.5467 75.248 28.7798C 77.7832 27.0129 81.3075 26.1294 85.8208 26.1294L 92.0723 26.1294L 92.0723 22.5859C 92.0723 20.3581 91.3809 18.6104 89.998 17.3428C 88.6344 16.056 86.637 15.4126 84.0059 15.4126C 81.6051 15.4126 79.6173 16.0272 78.0425 17.2563C 76.4676 18.4855 75.6802 19.9644 75.6802 21.6929L 72.2231 21.6641C 72.2231 19.1865 73.3755 17.0451 75.6802 15.2397C 77.9849 13.4152 80.8177 12.5029 84.1787 12.5029C 87.6549 12.5029 90.3918 13.3768 92.3892 15.1245C 94.4058 16.853 95.4429 19.2729 95.5005 22.3843L 95.5005 37.1343C 95.5005 40.1496 95.8174 42.4062 96.4512 43.9043L 96.4512 44.25L 92.7637 44.25ZM 81.9316 41.7725C 84.2363 41.7725 86.2913 41.2155 88.0967 40.1016C 89.9212 38.9876 91.2464 37.4992 92.0723 35.6362L 92.0723 28.7798L 85.9072 28.7798C 82.4694 28.8182 79.7806 29.452 77.8408 30.6812C 75.901 31.8911 74.9312 33.562 74.9312 35.6938C 74.9312 37.4416 75.5745 38.8916 76.8613 40.0439C 78.1673 41.1963 79.8574 41.7725 81.9316 41.7725Z"/>
<path id="path4_fill" d="M 119.124 16.0176C 118.394 15.8831 117.616 15.8159 116.79 15.8159C 114.639 15.8159 112.814 16.4209 111.316 17.6309C 109.838 18.8216 108.781 20.5597 108.147 22.8452L 108.147 44.25L 104.719 44.25L 104.719 13.0791L 108.09 13.0791L 108.147 18.0342C 109.972 14.3467 112.901 12.5029 116.934 12.5029C 117.894 12.5029 118.653 12.6278 119.21 12.8774L 119.124 16.0176Z"/>
<path id="path5_fill" d="M 122.638 28.3765C 122.638 23.5366 123.714 19.6859 125.865 16.8242C 128.035 13.9434 130.973 12.5029 134.68 12.5029C 138.886 12.5029 142.094 14.1642 144.302 17.4868L 144.302 0L 147.73 0L 147.73 44.25L 144.504 44.25L 144.36 40.1016C 142.151 43.2513 138.905 44.8262 134.623 44.8262C 131.031 44.8262 128.131 43.3857 125.922 40.5049C 123.733 37.6048 122.638 33.6965 122.638 28.7798L 122.638 28.3765ZM 126.124 28.9814C 126.124 32.957 126.921 36.0972 128.515 38.4019C 130.109 40.6873 132.356 41.8301 135.256 41.8301C 139.501 41.8301 142.516 39.9575 144.302 36.2124L 144.302 21.5776C 142.516 17.5252 139.52 15.499 135.314 15.499C 132.414 15.499 130.157 16.6418 128.544 18.9272C 126.931 21.1935 126.124 24.5449 126.124 28.9814Z"/>
<path id="path6_fill" d="M 176.481 44.25C 176.136 43.2705 175.915 41.8205 175.819 39.8999C 174.609 41.4748 173.063 42.6943 171.181 43.5586C 169.318 44.4036 167.34 44.8262 165.246 44.8262C 162.25 44.8262 159.82 43.9907 157.958 42.3198C 156.114 40.6489 155.192 38.5363 155.192 35.9819C 155.192 32.9474 156.45 30.5467 158.966 28.7798C 161.501 27.0129 165.025 26.1294 169.539 26.1294L 175.79 26.1294L 175.79 22.5859C 175.79 20.3581 175.099 18.6104 173.716 17.3428C 172.352 16.056 170.355 15.4126 167.724 15.4126C 165.323 15.4126 163.335 16.0272 161.76 17.2563C 160.185 18.4855 159.398 19.9644 159.398 21.6929L 155.941 21.6641C 155.941 19.1865 157.093 17.0451 159.398 15.2397C 161.703 13.4152 164.535 12.5029 167.896 12.5029C 171.373 12.5029 174.11 13.3768 176.107 15.1245C 178.124 16.853 179.161 19.2729 179.218 22.3843L 179.218 37.1343C 179.218 40.1496 179.535 42.4062 180.169 43.9043L 180.169 44.25L 176.481 44.25ZM 165.649 41.7725C 167.954 41.7725 170.009 41.2155 171.814 40.1016C 173.639 38.9876 174.964 37.4992 175.79 35.6362L 175.79 28.7798L 169.625 28.7798C 166.187 28.8182 163.498 29.452 161.559 30.6812C 159.619 31.8911 158.649 33.562 158.649 35.6938C 158.649 37.4416 159.292 38.8916 160.579 40.0439C 161.885 41.1963 163.575 41.7725 165.649 41.7725Z"/>
<path id="path7_fill" d="M 23.1909 91.9282L 24.4873 98.439L 26.0718 92.2163L 35.1753 61.3047L 38.373 61.3047L 47.3613 92.2163L 48.917 98.4966L 50.2998 91.9282L 57.8765 61.3047L 61.5063 61.3047L 50.7607 103.25L 47.3613 103.25L 37.8545 70.437L 36.7886 66.2886L 35.7515 70.437L 26.0142 103.25L 22.6147 103.25L 11.8979 61.3047L 15.5278 61.3047L 23.1909 91.9282Z"/>
<path id="path8_fill" d="M 86.2241 103.25C 85.8784 102.271 85.6576 100.82 85.5615 98.8999C 84.3516 100.475 82.8055 101.694 80.9233 102.559C 79.0604 103.404 77.0822 103.826 74.9888 103.826C 71.9927 103.826 69.5631 102.991 67.7002 101.32C 65.8564 99.6489 64.9346 97.5363 64.9346 94.9819C 64.9346 91.9474 66.1925 89.5467 68.7085 87.7798C 71.2437 86.0129 74.7679 85.1294 79.2812 85.1294L 85.5327 85.1294L 85.5327 81.5859C 85.5327 79.3581 84.8413 77.6104 83.4585 76.3428C 82.0949 75.056 80.0975 74.4126 77.4663 74.4126C 75.0656 74.4126 73.0778 75.0272 71.5029 76.2563C 69.9281 77.4855 69.1406 78.9644 69.1406 80.6929L 65.6836 80.6641C 65.6836 78.1865 66.8359 76.0451 69.1406 74.2397C 71.4453 72.4152 74.2782 71.5029 77.6392 71.5029C 81.1154 71.5029 83.8522 72.3768 85.8496 74.1245C 87.8662 75.853 88.9033 78.2729 88.9609 81.3843L 88.9609 96.1343C 88.9609 99.1496 89.2778 101.406 89.9116 102.904L 89.9116 103.25L 86.2241 103.25ZM 75.3921 100.772C 77.6968 100.772 79.7518 100.215 81.5571 99.1016C 83.3817 97.9876 84.7069 96.4992 85.5327 94.6362L 85.5327 87.7798L 79.3677 87.7798C 75.9298 87.8182 73.2411 88.452 71.3013 89.6812C 69.3615 90.8911 68.3916 92.562 68.3916 94.6938C 68.3916 96.4416 69.035 97.8916 70.3218 99.0439C 71.6278 100.196 73.3179 100.772 75.3921 100.772Z"/>
<path id="path9_fill" d="M 102.04 103.25L 98.583 103.25L 98.583 59L 102.04 59L 102.04 103.25Z"/>
<path id="path10_fill" d="M 115.292 103.25L 111.835 103.25L 111.835 59L 115.292 59L 115.292 103.25Z"/>
<path id="path11_fill" d="M 136.754 103.826C 134.104 103.826 131.703 103.173 129.552 101.867C 127.42 100.561 125.759 98.7463 124.568 96.4224C 123.378 94.0793 122.782 91.4577 122.782 88.5576L 122.782 87.3188C 122.782 84.3228 123.358 81.6244 124.511 79.2236C 125.682 76.8229 127.305 74.9408 129.379 73.5771C 131.454 72.1943 133.701 71.5029 136.121 71.5029C 139.904 71.5029 142.9 72.7993 145.109 75.3921C 147.337 77.9657 148.451 81.4899 148.451 85.9648L 148.451 87.895L 126.21 87.895L 126.21 88.5576C 126.21 92.0915 127.219 95.0396 129.235 97.4019C 131.271 99.745 133.826 100.917 136.898 100.917C 138.742 100.917 140.365 100.58 141.767 99.9082C 143.188 99.236 144.475 98.1605 145.627 96.6816L 147.788 98.3237C 145.253 101.992 141.575 103.826 136.754 103.826ZM 136.121 74.4414C 133.528 74.4414 131.338 75.3921 129.552 77.2935C 127.785 79.1948 126.71 81.7492 126.326 84.9565L 145.022 84.9565L 145.022 84.582C 144.926 81.5859 144.072 79.1468 142.458 77.2646C 140.845 75.3825 138.733 74.4414 136.121 74.4414Z"/>
<path id="path12_fill" d="M 160.521 64.0991L 160.521 72.0791L 166.975 72.0791L 166.975 74.9023L 160.521 74.9023L 160.521 95.6733C 160.521 97.4019 160.829 98.6886 161.443 99.5337C 162.077 100.379 163.124 100.801 164.583 100.801C 165.16 100.801 166.091 100.705 167.378 100.513L 167.522 103.336C 166.619 103.663 165.39 103.826 163.834 103.826C 161.472 103.826 159.753 103.144 158.678 101.781C 157.602 100.398 157.064 98.3717 157.064 95.7021L 157.064 74.9023L 151.332 74.9023L 151.332 72.0791L 157.064 72.0791L 157.064 64.0991L 160.521 64.0991Z"/>
</defs>
</svg>
